PathFileType	4	(X/Y/Z)	3_coords_data.trc
DataRate	CameraRate	NumFrames	NumMarkers	Units	OrigDataRate	OrigDataStartFrame	OrigNumFrames
30.0	30.0	7	21	m	30.0	39	58
Frame#	Time	THUMB_TIP	THUMB_IP	THUMB_MCP	THUMB_CMC	INDEX_TIP	INDEX_DIP	INDEX_PIP	INDEX_MCP	MIDDLE_TIP	MIDDLE_DIP	MIDDLE_PIP	MIDDLE_MCP	RING_TIP	RING_DIP	RING_PIP	RING_MCP	PINKY_TIP	PINKY_DIP	PINKY_PIP	PINKY_MCP	WRIST
X1	Y1	Z1	X2	Y2	Z2	X3	Y3	Z3	X4	Y4	Z4	X5	Y5	Z5	X6	Y6	Z6	X7	Y7	Z7	X8	Y8	Z8	X9	Y9	Z9	X10	Y10	Z10	X11	Y11	Z11	X12	Y12	Z12	X13	Y13	Z13	X14	Y14	Z14	X15	Y15	Z15	X16	Y16	Z16	X17	Y17	Z17	X18	Y18	Z18	X19	Y19	Z19	X20	Y20	Z20	X21	Y21	Z21
37	1.2666666666666608	0.474343057687315	-0.020079403390845685	-0.17310040279181999	0.4796669093457704	-0.02525421232192293	-0.15135464559540113	0.47174339075495864	-0.03002920598271641	-0.12163533724745246	0.47255800326410746	-0.0322373767886901	-0.07708928929534364	0.5665168415906288	0.02898149015669138	-0.17367893957468394	0.5549589552682841	0.020404939553757773	-0.16268539403581994	0.5384900853009267	0.009744557821142807	-0.146964630176732	0.5116093067299663	-0.007948619497161413	-0.11907177600577912	0.5869570448762897	0.04745108906796636	-0.14762296223088567	0.574728391432192	0.037499097848394	-0.13871128978909825	0.5540766973928886	0.0228284195715156	-0.12429989560937615	0.5220127769614673	0.0012117642701747755	-0.10192193455054621	0.6035244234004946	0.03976032986908873	-0.10218206983821576	0.5879444799765913	0.03180377703988879	-0.09782791894692544	0.5656515704831507	0.022152499591544972	-0.09234530926426843	0.5298992641087974	0.004979053545468126	-0.08449889773944619	0.5994357804334945	0.028507083790734633	-0.057668678583341126	0.5832941546581535	0.022857882547198005	-0.05839973442174806	0.5634495586907268	0.01619313906231923	-0.06000759765298169	0.5311466216365152	0.0007272097070404326	-0.0642747674233537	0.4622830810018609	-0.023011742144276925	-0.051989820119430985
38	1.299999999999994	0.4770511033345053	-0.019135817969324287	-0.17327824283643656	0.4808605259079275	-0.024077277367125283	-0.15116330945021567	0.4721118110953584	-0.029214995599316396	-0.12173740520761106	0.47256235141070124	-0.031891713764361285	-0.07721188226526743	0.5677746498668649	0.028886845115893678	-0.17294478694044846	0.5553424542513337	0.021325095665903793	-0.1621623726730989	0.5379739592039158	0.011619554187438097	-0.14679527543915116	0.510498337245967	-0.005928470154931698	-0.11939467081619642	0.5875958278769374	0.04747437174577651	-0.14746777874402173	0.5746838520209654	0.03838402892317372	-0.13859948990894494	0.5532456893193782	0.024741929472354762	-0.12432686392231423	0.5209067388375545	0.0033053253026247287	-0.10217258206971391	0.6031373169897146	0.03993026566306013	-0.10341453899591146	0.5872717695207298	0.03275456358304896	-0.09874616634922695	0.5646997594953574	0.024012667198638482	-0.09289265543536274	0.5289189151293937	0.007094524479801412	-0.08463260353457247	0.5995779044884639	0.028523866571384615	-0.05984831800233503	0.5832312202541877	0.023448449544964167	-0.060009738424787296	0.5631754568431308	0.01731281760535175	-0.06097534377963654	0.5305985543304232	0.002211241127789587	-0.0643769994897131	0.4622830810018608	-0.023011742144276925	-0.051989820119430985
39	1.3333333333333275	0.48074913037521516	-0.01797210832005569	-0.17318875497405745	0.4826264355983051	-0.022702469718909324	-0.15078118022497766	0.4727608491458878	-0.028318574826418308	-0.1217992967911618	0.4726367756886105	-0.0315275169474355	-0.07730685590238662	0.5693196767466474	0.028323920119268653	-0.171738778125554	0.5558941023048236	0.022101019558571022	-0.16129706085689016	0.5374584392698306	0.013666477690633894	-0.14643117154820062	0.5092413843766935	-0.0037105241508016418	-0.11968283114808526	0.5883489694924482	0.04705323995811317	-0.14715783706173718	0.5746452577167465	0.039114929690533984	-0.13837196694750603	0.55227886308072	0.026828523358589984	-0.12429368010457303	0.5195860726907345	0.005647840981915175	-0.10241428176789824	0.6026443887116267	0.039659690947141946	-0.10483663719624203	0.5864387072129083	0.03357366302547227	-0.09980313431070098	0.5635309944580055	0.026093068456525814	-0.09352162332735292	0.5277299808629233	0.009474833959484341	-0.08475563554695553	0.5996622077230183	0.02819816800748609	-0.06253754609943096	0.583086295671013	0.02396618899516556	-0.0619635310443436	0.5627856355515162	0.018612161575113695	-0.06213560108243377	0.5299062089055097	0.003970339432228465	-0.06446879605199696	0.4622830810018608	-0.023011742144276925	-0.051989820119430985
40	1.3666666666666607	0.4853015444229619	-0.016610231314406088	-0.17271539640538613	0.48490647936181797	-0.021164420014433305	-0.1501964424136482	0.473710544416427	-0.027362661062779514	-0.1218229891764202	0.4727615711620283	-0.031134134592950335	-0.07738465620618307	0.5709524563737493	0.027267495960094257	-0.16998898919579197	0.5565073602455561	0.022710854756094134	-0.1600604334707496	0.5369274058212873	0.01584355297140172	-0.14586623099433293	0.5078580938612806	-0.0013195180146730046	-0.11990394699429235	0.5890839846626527	0.046183371103679094	-0.14659343993432367	0.5745423991431806	0.03969811284221891	-0.1379630450498447	0.5511858435109118	0.02905845518079686	-0.12415440486174217	0.5180838944484919	0.008197834837864848	-0.10258490305532542	0.6019273372650749	0.03895182075558723	-0.10630279539269827	0.5853810948461845	0.0342857372426697	-0.10087605360173435	0.5621362822891992	0.02839033729071816	-0.09416018228096379	0.5263291253290037	0.012109937852007313	-0.08480513345458407	0.5995216528342305	0.027583585209321693	-0.06558457531784057	0.5827487489157499	0.024488873569214586	-0.06413804360163211	0.5622192411306143	0.020152677669639463	-0.06339727763280856	0.5290575171095931	0.0060089683570121455	-0.0644645160473789	0.4622830810018609	-0.023011742144276925	-0.051989820119430985
41	1.3999999999999937	0.490440812833401	-0.015122188021613248	-0.1717475156925442	0.48758410847721523	-0.019528602080303714	-0.14937738481754192	0.4749281085607491	-0.026386016754181285	-0.12177989344414186	0.4729553019714664	-0.030735989571254896	-0.0774281655110387	0.5724424421525363	0.025739357871997215	-0.1676796305775473	0.5570683350895628	0.023121960065281666	-0.1584716959156574	0.536381737154037	0.01804150639835722	-0.1451201608206905	0.506442606109854	0.0010748346429679811	-0.12003198480360794	0.5896367245655868	0.044867254965720416	-0.14574970621233735	0.5743047530803704	0.040091478610475906	-0.13737578176909104	0.5499840937705933	0.03132056712462261	-0.12392267088554132	0.5164596373851847	0.010813289474873145	-0.10266919332400026	0.6008659832554697	0.037796977804604004	-0.10771687748739922	0.5840566830461696	0.03484709674838482	-0.10190777874251777	0.5605428871785675	0.030796373121220078	-0.09477524616333777	0.5247556178359745	0.014846817647001465	-0.08479507245866014	0.5989978000659141	0.026685640690754853	-0.06885166090284323	0.5821355240550108	0.02500755845498126	-0.06643346162608854	0.5614474782965153	0.021870959386237288	-0.06470762038879152	0.5280640546363483	0.008220427549963438	-0.06440191413651852	0.4622830810018608	-0.023011742144276925	-0.051989820119430985
42	1.4333333333333271	0.4959032390463811	-0.013612959584901052	-0.17025747602040175	0.4905462621192277	-0.017917667131691184	-0.14833095575067917	0.47638476872551083	-0.02545927714394891	-0.12165894376652753	0.4732227208086751	-0.030340661335193198	-0.0774315366375864	0.5736323311855708	0.023854906345644022	-0.16485938597761562	0.557543250335341	0.023317332996786955	-0.1565616457858907	0.5358787939764509	0.020150853807370805	-0.1442071092419025	0.5050812834467796	0.0033687004619914473	-0.12005118308977658	0.5899120235605303	0.043206885645102555	-0.14457603634877164	0.5739216761205221	0.040310073363698073	-0.13658120881128666	0.5487346978616235	0.03351970335085663	-0.12358441877395537	0.5147959758864166	0.013367403428805935	-0.10265129001733331	0.5994068376077665	0.03626691587385422	-0.10891428956983562	0.5824803263086047	0.03528601314769664	-0.10278803091702249	0.5588169877216117	0.033219942071076924	-0.09530754054381263	0.5230851419350415	0.017561058846545796	-0.0846889056576674	0.5979856043657397	0.0255735994326709	-0.07210911596488023	0.5812148312925226	0.025519524354967182	-0.06868300353055656	0.5604727225407281	0.023712209451114186	-0.0659791994757023	0.5269438302167572	0.010531516701289156	-0.06425694247912317	0.4622830810018609	-0.023011742144276925	-0.051989820119430985
43	1.4666666666666603	0.501505206143475	-0.012306736250370043	-0.1682680946758588	0.49373588682337066	-0.016535050203843493	-0.14706057151983903	0.4780608470193932	-0.024721684492721607	-0.12144627578164063	0.4735654533774676	-0.029993599628477363	-0.07737941355155298	0.5744904695045304	0.021643151499294966	-0.16167133702697645	0.5579626437701178	0.0231831414945034	-0.15442845035745406	0.5355122788195011	0.021956152802714457	-0.14318187553067474	0.5038724641392556	0.005381123063064708	-0.11999078650645156	0.5899827610084596	0.04112616793775403	-0.14309632606387335	0.5735249838359573	0.040178892082332496	-0.13559671014077473	0.5476074353386013	0.03541958307475557	-0.12314523602492794	0.5132338582768463	0.015669465322693643	-0.10254091682337996	0.5976374895154434	0.03434682750533824	-0.10975763168959779	0.580796244457912	0.03547547307015253	-0.10342528424957176	0.5571184797338412	0.03544642605736359	-0.0957088995428198	0.5214532691582805	0.02004792301549352	-0.08450177267325887	0.5965133084250615	0.02427210526152812	-0.07509350299647144	0.580053013081666	0.025963949600914082	-0.07071214020169159	0.559376669610079	0.025522812494051417	-0.06709188638491126	0.5257807159686666	0.012765585016077607	-0.0640180456279279	0.4622830810018609	-0.023011742144276925	-0.051989820119430985
